<svg width="34" height="36" viewBox="0 0 34 36" fill="none" xmlns="http://www.w3.org/2000/svg">
<path d="M28.9624 35.1483H14.8974C14.5305 35.1506 14.1771 35.0034 13.9129 34.7382L8.69476 29.422H6.45848L6.48199 26.9588L9.15239 26.9699C9.51452 26.9714 9.86214 27.1183 10.1229 27.38L15.3819 32.5664H28.9624C29.7048 32.5664 30.7546 32.2241 30.7546 30.7498C30.7546 29.2755 29.8477 28.8543 28.9624 28.8543H21.9299V26.3612H28.9624C30.0815 26.3612 31.1547 26.8241 31.946 27.6481C32.7373 28.472 33.1819 29.5895 33.1819 30.7548C33.1819 31.92 32.7373 33.0375 31.946 33.8614C31.1547 34.6854 30.0815 35.1483 28.9624 35.1483Z" fill="#2053BE"/>
<path d="M19.1169 30.7547C18.5606 30.7561 18.0095 30.643 17.4954 30.4219C16.9812 30.2007 16.5142 29.8758 16.1211 29.466L14.0113 27.2692L15.521 25.5051L17.8926 27.9104C18.0238 28.046 18.1793 28.1534 18.3503 28.2264C19.0295 28.5164 20.0107 28.4673 20.5455 27.9104C21.1366 27.2949 21.1789 26.4917 20.8521 25.6785C20.7808 25.5009 20.6766 25.3398 20.5455 25.2042L15.7865 20.219H6.48199L6.45848 17.7059H16.1773C16.3624 17.7048 16.5459 17.7417 16.7173 17.8146C16.8887 17.8875 17.0445 17.9949 17.176 18.1306L22.0987 23.2564C22.688 23.8709 23.0893 24.6534 23.2518 25.5051C23.4143 26.3569 23.3308 27.2397 23.0117 28.042C22.6927 28.8444 22.1524 29.5302 21.4592 30.013C20.766 30.4959 19.9509 30.754 19.1169 30.7547Z" fill="#2053BE"/>
<path d="M4.86379 32.3365H0.818359V29.6967H2.43653V18.7612L0.818359 18.7447V16.2268H4.86379V32.3365Z" fill="#2053BE"/>
<path d="M24.4082 4.39354H21.9158V8.78707H24.4082V4.39354Z" fill="#2053BE"/>
<path d="M28.3273 0H25.9V5.85805H28.3273V0Z" fill="#2053BE"/>
<path fill-rule="evenodd" clip-rule="evenodd" d="M26.7092 22.0362C29.8371 22.0362 32.3728 19.5006 32.3728 16.3726C32.3728 13.2447 29.8371 10.709 26.7092 10.709C23.5813 10.709 21.0456 13.2447 21.0456 16.3726C21.0456 19.5006 23.5813 22.0362 26.7092 22.0362ZM30.3133 16.3727C30.3133 18.3631 28.6997 19.9768 26.7092 19.9768C24.7187 19.9768 23.1051 18.3631 23.1051 16.3727C23.1051 14.3822 24.7187 12.7685 26.7092 12.7685C28.6997 12.7685 30.3133 14.3822 30.3133 16.3727Z" fill="#2053BE"/>
</svg>
