<svg width="29" height="31" viewBox="0 0 29 31" fill="none" xmlns="http://www.w3.org/2000/svg">
<path d="M14.0753 21.3178H12.7957C12.117 21.3178 11.4661 21.037 10.9862 20.5373C10.5062 20.0376 10.2366 19.3598 10.2366 18.6531V17.3207C10.2366 16.614 10.5062 15.9362 10.9862 15.4365C11.4661 14.9367 12.117 14.656 12.7957 14.656H17.914L17.9461 16.8545H12.6678V19.0529H14.0754L14.0753 21.3178Z" fill="#2053BE"/>
<path d="M15.3549 25.3149H10.2366V23.0833H15.8348V21.3178L12.7957 21.3178V19.0529H15.3549C16.0336 19.0529 16.6846 18.9338 17.1645 19.4336C17.6445 19.9333 17.914 20.6111 17.914 21.3178V22.6502C17.914 23.3569 17.6445 24.0347 17.1645 24.5344C16.6846 25.0341 16.0336 25.3149 15.3549 25.3149Z" fill="#2053BE"/>
<path d="M15.1311 13.3236H13.0198V15.9884H15.1311V13.3236Z" fill="#2053BE"/>
<path d="M15.1311 23.9825H13.0198V26.6472H15.1311V23.9825Z" fill="#2053BE"/>
<path d="M28.1508 11.2585H0V2.66473H3.83874V4.90979H2.11132V9.32655H26.0396V4.93498H23.0324V2.66473H28.1508V11.2585Z" fill="#2053BE"/>
<path d="M20.4093 2.81506H6.33386V4.92638H20.4093V2.81506Z" fill="#2053BE"/>
<path d="M7.74145 0H5.63013V8.06084H7.74145V0Z" fill="#2053BE"/>
<path d="M24.6321 0H22.5208V8.06084H24.6321V0Z" fill="#2053BE"/>
<path d="M28.1508 30.7777H0V9.32654H28.1508V30.7777ZM2.11132 28.5793H26.0396V11.4959H2.11132V28.5793Z" fill="#2053BE"/>
</svg>
