<svg width="20" height="32" viewBox="0 0 20 32" fill="none" xmlns="http://www.w3.org/2000/svg">
<path d="M16.7922 31.7723H3.02595C2.29575 31.7723 1.59544 31.4771 1.07911 30.9519C0.562776 30.4267 0.272705 29.7143 0.272705 28.9715V3.76485C0.272705 3.02205 0.562776 2.30971 1.07911 1.78447C1.59544 1.25923 2.29575 0.964111 3.02595 0.964111H16.7922C17.5224 0.964111 18.2227 1.25923 18.739 1.78447C19.2554 2.30971 19.5454 3.02205 19.5454 3.76485V28.9715C19.5454 29.7143 19.2554 30.4267 18.739 30.9519C18.2227 31.4771 17.5224 31.7723 16.7922 31.7723ZM2.66368 3.39633V29.34H17.0095V3.39633H2.66368Z" fill="#2053BE"/>
<path d="M17.8066 23.6648H1.86674V26.0971H17.8066V23.6648Z" fill="#2053BE"/>
<path d="M17.8066 5.82857H1.86674V8.26079H17.8066V5.82857Z" fill="#2053BE"/>
<path d="M15.4155 10.693H4.25763V13.1252H15.4155V10.693Z" fill="#2053BE"/>
<path d="M9.83657 14.7467H4.25763V17.1789H9.83657V14.7467Z" fill="#2053BE"/>
</svg>
