<svg width="32" height="34" viewBox="0 0 32 34" fill="none" xmlns="http://www.w3.org/2000/svg">
<path d="M15.6279 25.1543C14.0089 25.1543 12.4262 24.6881 11.08 23.8147C9.73383 22.9413 8.68459 21.6999 8.06501 20.2474C7.44542 18.795 7.28332 17.1968 7.59918 15.6549C7.91504 14.113 8.69467 12.6966 9.83951 11.5849C10.9843 10.4733 12.443 9.71627 14.0309 9.40956C15.6189 9.10286 17.2648 9.26027 18.7606 9.86189C20.2564 10.4635 21.5349 11.4823 22.4344 12.7895C23.3339 14.0966 23.814 15.6335 23.814 17.2056C23.814 19.3137 22.9515 21.3355 21.4163 22.8262C19.8812 24.3169 17.799 25.1543 15.6279 25.1543ZM15.6279 11.5849C12.4952 11.5849 9.83951 13.799 9.83951 17.182C9.83951 20.565 12.2791 22.8262 15.6279 22.8262C18.9768 22.8262 21.4163 20.6122 21.4163 17.2056C21.4163 13.799 18.7606 11.5849 15.6279 11.5849Z" fill="#2053BE"/>
<path d="M22.3256 18.3411H16.1241L14.8838 16.9555V10.0139H17.1163V16.07H22.3256V18.3411Z" fill="#2053BE"/>
<path d="M11.7526 22.8832C11.4893 22.8821 11.2321 22.803 11.0132 22.6556C10.7944 22.5083 10.6235 22.2993 10.522 22.0548C10.4205 21.8103 10.3929 21.5411 10.4426 21.2809C10.4923 21.0207 10.8289 20.8944 11.0132 20.7051L14.965 16.6614C15.0841 16.5195 15.0194 16.2906 15.185 16.2086C15.3506 16.1266 15.5312 16.0799 15.7156 16.0714C15.9 16.063 16.0842 16.0929 16.2565 16.1595C16.4289 16.226 16.5857 16.3277 16.7171 16.4581C16.8486 16.5885 16.9518 16.7448 17.0204 16.9172C17.0889 17.0897 17.1214 17.2745 17.1156 17.4602C17.1098 17.6458 17.0659 17.8282 16.9868 17.996C16.9076 18.1638 16.5114 18.2192 16.372 18.3411L12.4202 22.3848C12.2962 22.5121 12.4317 22.7075 12.2684 22.7769C12.1052 22.8463 11.9298 22.8825 11.7526 22.8832Z" fill="#2053BE"/>
<path d="M19.76 33.4816H12.3467L11.4667 29.9416C11.12 29.8059 10.7734 29.6703 10.44 29.5075L7.30668 31.3793L2.05334 26.0488L3.9067 22.9157C3.74282 22.5725 3.6003 22.2192 3.48002 21.8578L0 20.9762V13.435L3.48002 12.5534C3.6003 12.192 3.74282 11.8386 3.9067 11.4954L2.06669 8.36229L7.30668 3.03187L10.3733 4.90361C10.7163 4.73921 11.0679 4.5943 11.4267 4.46958L12.2933 0.929565H19.7067L20.5734 4.46958C20.9286 4.59193 21.276 4.7369 21.6134 4.90361L24.6934 3.03187L29.9333 8.36229L28.0933 11.4954C28.2533 11.8345 28.3867 12.1871 28.52 12.5534L32 13.435V20.9762L28.52 21.8578C28.3867 22.224 28.2533 22.5766 28.0933 22.9157L29.9333 26.0488L24.6934 31.3793L21.6134 29.5075C21.28 29.6703 20.9334 29.8059 20.5734 29.9416L19.76 33.4816ZM14.5116 31.2105H17.765L18.516 28.0913L19.2493 27.8743C19.9273 27.6632 20.5836 27.3861 21.2093 27.0469L21.876 26.6807L24.4974 28.2442L26.7907 25.9113L25.3144 23.1829L25.6744 22.5047C26.0079 21.8683 26.2803 21.2006 26.4878 20.5109L26.7011 19.7649L29.7674 19.001V15.6915L26.7011 14.6462L26.4878 13.9002C26.2825 13.2098 26.01 12.5419 25.6744 11.9064L25.3144 11.2147L26.7209 8.78275L24.4276 6.44985L21.7209 7.64343L21.0543 7.27724C20.4312 6.93234 19.7743 6.655 19.0943 6.44985L18.3609 6.23283L17.68 3.20063H14.4267L13.6279 6.23283L12.9079 6.44985C12.2246 6.65783 11.5635 6.93503 10.9345 7.27724L10.2679 7.64343L7.44186 6.23283L5.13518 8.56573L6.68557 11.2147L6.32558 11.9064C5.99209 12.5429 5.7197 13.2106 5.51223 13.9002L5.29889 14.6462L2.23256 15.5508V18.8603L5.29889 19.7649L5.51223 20.5109C5.7139 21.2027 5.98653 21.871 6.32558 22.5047L6.68557 23.1829L5.13518 25.8495L7.44186 28.1824L10.124 26.6807L10.7907 27.0469C11.4221 27.3838 12.0826 27.6608 12.764 27.8743L13.4841 28.0913L14.5116 31.2105Z" fill="#2053BE"/>
</svg>
