<svg width="28" height="30" viewBox="0 0 28 30" fill="none" xmlns="http://www.w3.org/2000/svg">
<path d="M7.53511 20.3094C6.50808 20.3094 5.75072 19.952 5.02341 19.2143C4.29609 18.4767 3.95005 17.7493 3.94696 16.7046C3.94696 16.5623 3.94696 16.432 3.94696 16.3016H1.16518C0.856153 16.3016 0.559802 16.1767 0.341289 15.9544C0.122776 15.7321 0 15.4307 0 15.1163V2.14939C0 1.83503 0.122776 1.53355 0.341289 1.31127C0.559802 1.08899 0.856153 0.964111 1.16518 0.964111H13.9821L13.9588 3.15414H2.15289V14.1728H5.38222C6.01435 14.1694 6.54965 14.6244 6.50512 15.2703C6.49012 15.488 6.41638 15.6972 6.29198 15.8749C6.11111 16.1394 6.01359 16.4535 6.01235 16.7757C6.01235 17.1938 6.1756 17.5948 6.46622 17.8904C6.75684 18.186 7.15098 18.3521 7.56199 18.3521C7.97299 18.3521 8.3672 18.186 8.65782 17.8904C8.94845 17.5948 9.11169 17.1938 9.11169 16.7757C9.11591 16.4527 9.01788 16.1369 8.83206 15.8749C8.70766 15.6972 8.63393 15.488 8.61892 15.2703C8.60392 15.0527 8.64821 14.8351 8.747 14.6414C8.8458 14.4478 8.99524 14.2856 9.17882 14.1728C9.36241 14.06 9.57304 14.001 9.78751 14.0021H13.9588V16.3016L11.1233 16.2943C11.1233 16.4247 11.1233 16.6335 11.1233 16.7757C11.1022 17.7999 10.7622 18.4933 10.0468 19.2143C9.33147 19.9354 8.5421 20.2973 7.53511 20.3094Z" fill="#2053BE"/>
<path d="M13.9821 29.3159H1.16518C0.856153 29.3159 0.559802 29.191 0.341289 28.9687C0.122776 28.7465 0 28.445 0 28.1306V15.0926H2.15289V27.2445H12.9173V23.9594C12.9122 23.3329 13.4044 22.6665 14.0521 22.7061C14.2653 22.7192 14.4708 22.7916 14.6463 22.9154C14.8782 23.0827 15.1508 23.1818 15.4344 23.202C15.718 23.2222 16.0016 23.1626 16.2541 23.0298C16.5066 22.897 16.7184 22.6962 16.8662 22.4492C17.014 22.2022 17.0922 21.9186 17.0922 21.6294C17.0922 21.3402 17.014 21.0566 16.8662 20.8096C16.7184 20.5626 16.5066 20.3618 16.2541 20.229C16.0016 20.0962 15.718 20.0366 15.4344 20.0568C15.1508 20.077 14.8782 20.1761 14.6463 20.3434C14.4708 20.4672 14.2653 20.5396 14.0521 20.5526C13.8389 20.5657 13.6263 20.5189 13.4375 20.4174C13.2487 20.3158 13.1689 20.2434 13.0595 20.0568C12.95 19.8703 12.8931 19.6567 12.8949 19.4395L12.9173 15.1163H15.0702V17.857H15.5318C17.1864 17.7647 18.349 18.4775 19.0172 20.0568C19.2257 20.5497 19.376 21.0929 19.376 21.6294C19.376 23.8588 17.5819 25.4194 15.5318 25.3168H15.0702V28.3395C15.0641 28.6497 15.0158 28.76 14.7979 28.9772C14.58 29.1944 14.2871 29.316 13.9821 29.3159Z" fill="#2053BE"/>
<path d="M26.7758 29.316H13.9589L13.9938 27.2444H25.8347V16.278H22.6046C22.3918 16.2795 22.1827 16.2218 21.9999 16.1111C21.817 16.0004 21.6675 15.8408 21.5675 15.6498C21.4774 15.4624 21.4374 15.2541 21.4518 15.046C21.4661 14.8379 21.5342 14.6373 21.6491 14.4645C21.8349 14.2025 21.933 13.8867 21.9287 13.5637C21.9273 13.3165 21.8687 13.0732 21.7578 12.8533C21.6468 12.6334 21.4866 12.4431 21.29 12.2978C21.0935 12.1525 20.8661 12.0563 20.6262 12.0168C20.3864 11.9774 20.1408 11.9959 19.9092 12.0709C19.6777 12.1458 19.4667 12.2751 19.2934 12.4483C19.12 12.6214 18.9891 12.8336 18.9112 13.0678C18.8333 13.3019 18.8106 13.5514 18.845 13.7961C18.8793 14.0407 18.9698 14.2738 19.109 14.4763C19.227 14.6539 19.2955 14.8607 19.3071 15.0747C19.3187 15.2887 19.2731 15.5019 19.1751 15.6916C19.0771 15.8813 18.9303 16.0405 18.7504 16.1521C18.5705 16.2637 18.3643 16.3236 18.1536 16.3254H13.9822V14.1043H16.8644C16.8579 13.974 16.8579 13.694 16.8644 13.5637C16.8644 12.5169 17.2132 11.5594 17.9408 10.8192C18.6685 10.079 19.4235 9.72423 20.4525 9.72423C21.4816 9.72423 22.2366 10.079 22.9642 10.8192C23.6919 11.5594 24.0407 12.5169 24.0407 13.5637C24.0472 13.694 24.0472 13.974 24.0407 14.1043H26.8225C27.1315 14.1043 27.4279 14.0797 27.6464 14.302C27.8649 14.5243 27.9877 14.8257 27.9877 15.1401V28.1781C27.9817 28.3338 27.9455 28.4868 27.8813 28.6283C27.8172 28.7697 27.7262 28.897 27.6137 29.0027C27.5011 29.1083 27.3692 29.1904 27.2254 29.2442C27.0817 29.2979 26.9289 29.3223 26.7758 29.316Z" fill="#2053BE"/>
<path d="M27.941 15.1163H25.8347V3.15414H15.0702V6.43918C15.0699 6.65541 15.0114 6.86743 14.9011 7.05227C14.7908 7.23711 14.6868 7.34123 14.4984 7.44133C14.31 7.54144 14.0982 7.58721 13.8861 7.57368C13.6739 7.56016 13.4695 7.48785 13.2948 7.36459C13.0366 7.17707 12.7266 7.0775 12.4093 7.08014C12.1653 7.0779 11.9243 7.13426 11.7058 7.24467C11.4873 7.35507 11.2976 7.51639 11.1519 7.7155C11.0063 7.9146 10.909 8.14586 10.8678 8.39046C10.8267 8.63507 10.8428 8.88611 10.915 9.12316C10.9873 9.3602 11.1134 9.57654 11.2834 9.75459C11.4533 9.93264 11.6622 10.0674 11.893 10.1478C12.1238 10.2282 12.37 10.2521 12.6115 10.2175C12.8531 10.1828 13.0832 10.0907 13.2832 9.9485C13.4579 9.82196 13.6635 9.74692 13.8775 9.73166C14.0914 9.71639 14.3053 9.7615 14.4957 9.862C14.6861 9.9625 14.8454 10.1145 14.9563 10.3013C15.0672 10.488 15.1252 10.7023 15.1241 10.9204V15.1519H12.9173V12.3591H12.4093C11.3802 12.3591 10.4157 11.9244 9.68801 11.1842C8.96036 10.444 8.61156 9.67601 8.61156 8.62921C8.61156 7.5824 8.96036 6.81437 9.68801 6.07417C10.4157 5.33397 11.3802 4.97916 12.4093 4.97916H12.7937V2.14939C12.7937 1.83503 12.9165 1.53355 13.135 1.31127C13.3535 1.08899 13.6499 0.964111 13.9589 0.964111H26.7759C27.0849 0.964111 27.3813 1.08899 27.5998 1.31127C27.8183 1.53355 27.941 1.83503 27.941 2.14939V15.1163Z" fill="#2053BE"/>
</svg>
