<svg width="16" height="16" viewBox="0 0 16 16" fill="none" xmlns="http://www.w3.org/2000/svg">
<path d="M8 16C6.41775 16 4.87103 15.5308 3.55544 14.6518C2.23985 13.7727 1.21447 12.5233 0.608967 11.0615C0.00346624 9.59965 -0.15496 7.99112 0.153721 6.43927C0.462403 4.88742 1.22432 3.46196 2.34314 2.34314C3.46196 1.22432 4.88742 0.462399 6.43927 0.153717C7.99112 -0.154964 9.59966 0.00347757 11.0615 0.608979C12.5233 1.21448 13.7727 2.23986 14.6518 3.55545C15.5308 4.87104 16 6.41775 16 8C16 10.1217 15.1572 12.1566 13.6569 13.6569C12.1566 15.1572 10.1217 16 8 16ZM8 1.0297C4.27723 1.0297 1.0297 4.27723 1.0297 8C1.0297 11.7228 4.21785 15.0495 8 15.0495C11.7822 15.0495 14.9703 11.7228 14.9703 8C14.9703 4.27723 11.7228 1.0297 8 1.0297Z" fill="#6F6F6F"/>
<path d="M8.00016 16C5.34535 16 3.3335 12.56 3.3335 8C3.3335 3.44 5.34535 0 8.00016 0C10.655 0 12.6668 3.44 12.6668 8C12.6668 12.56 10.6757 16 8.00016 16ZM8.00016 0.871287C6.1335 0.871287 4.43653 4.28 4.43653 8C4.43653 11.72 6.1335 15.0495 8.00016 15.0495C9.86683 15.0495 11.5638 11.72 11.5638 8C11.5638 4.28 9.86683 0.871287 8.00016 0.871287Z" fill="#6F6F6F"/>
<path d="M8.66593 0.666656H7.3335V15.3333H8.66593V0.666656Z" fill="#6F6F6F"/>
<path d="M15.3332 7.33334H0.666504V8.66668H15.3332V7.33334Z" fill="#6F6F6F"/>
</svg>
