<svg width="20" height="20" viewBox="0 0 20 20" fill="none" xmlns="http://www.w3.org/2000/svg">
<path d="M10 19.5798C8.02219 19.5798 6.08879 19.0069 4.4443 17.9334C2.79981 16.8599 1.51809 15.3341 0.761209 13.5489C0.0043328 11.7638 -0.1937 9.79946 0.192152 7.90436C0.578004 6.00927 1.5304 4.26851 2.92893 2.90222C4.32745 1.53593 6.10928 0.605478 8.04909 0.22852C9.9889 -0.148439 11.9996 0.0450488 13.8268 0.78448C15.6541 1.52391 17.2159 2.77609 18.3147 4.38268C19.4135 5.98926 20 7.87808 20 9.81031C20 12.4013 18.9464 14.8863 17.0711 16.7184C15.1957 18.5505 12.6522 19.5798 10 19.5798ZM10 1.29826C5.34653 1.29826 1.28713 5.2641 1.28713 9.81031C1.28713 14.3565 5.27231 18.4191 10 18.4191C14.7277 18.4191 18.7129 14.3565 18.7129 9.81031C18.7129 5.2641 14.6535 1.29826 10 1.29826Z" fill="#BFC1C6"/>
<path d="M10.0001 19.5798C6.68156 19.5798 4.16675 15.3789 4.16675 9.81031C4.16675 4.24169 6.68156 0.040802 10.0001 0.040802C13.3186 0.040802 15.8334 4.24169 15.8334 9.81031C15.8334 15.3789 13.3445 19.5798 10.0001 19.5798ZM10.0001 1.10481C7.66675 1.10481 5.54554 5.26749 5.54554 9.81031C5.54554 14.3531 7.66675 18.4191 10.0001 18.4191C12.3334 18.4191 14.4546 14.3531 14.4546 9.81031C14.4546 5.26749 12.3334 1.10481 10.0001 1.10481Z" fill="#BFC1C6"/>
<path d="M10.8334 0.854919H9.16675V18.7657H10.8334V0.854919Z" fill="#BFC1C6"/>
<path d="M19.1666 8.99619H0.833252V10.6244H19.1666V8.99619Z" fill="#BFC1C6"/>
</svg>
