<svg width="19" height="19" viewBox="0 0 19 19" fill="none" xmlns="http://www.w3.org/2000/svg">
<path d="M12.0004 14.2522H11.2504C9.26117 14.2522 7.35345 13.462 5.94688 12.0554C4.54032 10.6489 3.75012 8.74116 3.75012 6.75198V6.00195H5.25017V6.75198C5.25017 8.34332 5.88232 9.8695 7.00758 10.9948C8.13283 12.12 9.659 12.7522 11.2504 12.7522H12.0004V14.2522Z" fill="white"/>
<path d="M5.25016 7.50178H4.50014V6.00174H5.25016C5.25016 5.85923 5.25016 5.62674 5.25016 5.45423V2.0491C5.25016 1.87659 5.25016 1.6441 5.25016 1.5016H2.25007C2.05115 1.5016 1.86038 1.58063 1.71972 1.72129C1.57907 1.86194 1.50005 2.0527 1.50005 2.25162V5.25171H0V2.25162C0 1.65487 0.237058 1.08254 0.659028 0.660569C1.081 0.238599 1.65331 0.00155195 2.25007 0.00155195H5.25016C5.44532 -0.00749061 5.6403 0.0230512 5.82333 0.0913679C6.00637 0.159685 6.17368 0.264384 6.31519 0.399086C6.4954 0.631942 6.62681 0.898733 6.70156 1.18353C6.7763 1.46833 6.79285 1.76527 6.75021 2.05661V5.44673C6.79285 5.73807 6.7763 6.035 6.70156 6.3198C6.62681 6.6046 6.4954 6.87139 6.31519 7.10425C6.17368 7.23895 6.00637 7.34365 5.82333 7.41196C5.6403 7.48028 5.44532 7.51082 5.25016 7.50178Z" fill="white"/>
<path d="M15.7506 18.0022H12.7505V16.5021H15.7506C15.9495 16.5021 16.1403 16.4231 16.2809 16.2824C16.4216 16.1418 16.5006 15.951 16.5006 15.7521V12.752C16.3581 12.752 16.1181 12.752 15.9531 12.752H12.5405C12.3755 12.752 12.143 12.752 12.0005 12.752V13.502H10.5004V12.752C10.49 12.5567 10.52 12.3614 10.5884 12.1781C10.6568 11.9949 10.7621 11.8277 10.8979 11.687C11.1299 11.5052 11.3967 11.3729 11.6817 11.298C11.9668 11.2232 12.2641 11.2075 12.5555 11.252H15.9381C16.2306 11.2091 16.5288 11.2256 16.8148 11.3003C17.1008 11.3751 17.3689 11.5065 17.6031 11.687C17.7389 11.8277 17.8443 11.9949 17.9127 12.1781C17.9811 12.3614 18.011 12.5567 18.0006 12.752V15.7521C18.0006 16.3488 17.7636 16.9212 17.3416 17.3431C16.9196 17.7651 16.3473 18.0022 15.7506 18.0022Z" fill="white"/>
<path d="M15.0005 18.0022H12.7504C9.36878 18.0022 6.12567 16.6588 3.7345 14.2677C1.34334 11.8765 0 8.63339 0 5.25178V3.00171H1.50005V5.25178C1.50005 8.23555 2.68534 11.0971 4.79519 13.207C6.90504 15.3168 9.76661 16.5021 12.7504 16.5021H15.0005V18.0022Z" fill="white"/>
</svg>
